<?xml version="1.0" standalone="no"?>
<!DOCTYPE svg PUBLIC "-//W3C//DTD SVG 20010904//EN"
 "http://www.w3.org/TR/2001/REC-SVG-20010904/DTD/svg10.dtd">
<svg version="1.0" xmlns="http://www.w3.org/2000/svg"
 width="300.000000pt" height="300.000000pt" viewBox="0 0 300.000000 300.000000"
 preserveAspectRatio="xMidYMid meet">
<metadata>
Created by potrace 1.11, written by Peter Selinger 2001-2013
</metadata>
<g transform="translate(0.000000,300.000000) scale(0.100000,-0.100000)"
fill="#000000" stroke="none">
<path d="M1190 2965 c-253 -53 -467 -159 -673 -335 -173 -147 -325 -358 -406
-562 -134 -339 -145 -686 -32 -1039 90 -281 288 -550 541 -736 190 -139 480
-254 682 -270 53 -4 75 -9 71 -17 -4 -6 1 -5 10 3 11 9 17 10 17 2 0 -14 186
-15 195 -1 3 6 32 10 63 10 67 0 197 28 305 64 390 131 712 417 886 787 102
217 135 371 135 634 0 271 -35 429 -148 660 -179 366 -524 658 -908 769 -152
44 -249 56 -443 55 -149 0 -200 -4 -295 -24z"/>
</g>
</svg>
